# xmcd
#
# Track frame offsets: 
#        150
#        26544
#        46626
#        68828
#        88325
#        107501
#        133866
#        152407
#        169334
#        188208
#        208735
#        229761
#        246252
#        261758
#        279341
#        300545
#        317269
#        327657
#
# Disc length: 4786 seconds
#
# Revision: 1
# Processed by: cddbd v1.5.2PL0 Copyright (c) Steve Scherf et al.
# Submitted via: ExactAudioCopy v1.3
#
DISCID=f612b012
DTITLE=Various Artist - Akella Presents - vol. 47 - Rockin' Blues  CD
DTITLE=2
DYEAR=2015
DGENRE=Blues
TTITLE0=Dr. Feelgood - Down By The Jetty Blues
TTITLE1=Scott Ellison - Dont Wanna Need Ya
TTITLE2=Keith Thompson Band - Access Denied
TTITLE3=Tom Principato - The Road To Hell
TTITLE4=Selwyn Birchwood - The River Turned Red
TTITLE5=Graham Parker - Stick To The Plan
TTITLE6=Jimmy Thackery and the Drivers - Wild Night Out
TTITLE7=Wilko Johnson and Roger Daltrey - Sneaking Suspicion
TTITLE8=The Fabulous Thunderbirds - I Can't Have You
TTITLE9=Don Nix - One More Repossession
TTITLE10=Steve Johnson - Rattlesnake Shake
TTITLE11=Hot Monkey Love - Stop Breaking Down
TTITLE12=The Pirates - Witch Queen Of New Orleans
TTITLE13=Peter Haycock - Communication
TTITLE14=Mungo Jerry - Praying So Hard
TTITLE15=Dr. Feelgood - If My Baby Quit Me
TTITLE16=Stoner Train - Stoner Train
TTITLE17=Rick Derringer - I'll Be Lovin' You
EXTD=
EXTT0=
EXTT1=
EXTT2=
EXTT3=
EXTT4=
EXTT5=
EXTT6=
EXTT7=
EXTT8=
EXTT9=
EXTT10=
EXTT11=
EXTT12=
EXTT13=
EXTT14=
EXTT15=
EXTT16=
EXTT17=
PLAYORDER=
